<mxfile host="65bd71144e">
    <diagram id="rNI-iPrPM1veeQ_cT2b6" name="Page-1">
        <mxGraphModel dx="2369" dy="2522" grid="1" gridSize="10" guides="1" tooltips="1" connect="1" arrows="1" fold="1" page="1" pageScale="1" pageWidth="827" pageHeight="1169" math="0" shadow="0">
            <root>
                <mxCell id="0"/>
                <mxCell id="1" parent="0"/>
                <mxCell id="2" value="Branch" style="swimlane;fontStyle=0;childLayout=stackLayout;horizontal=1;startSize=26;horizontalStack=0;resizeParent=1;resizeParentMax=0;resizeLast=0;collapsible=1;marginBottom=0;align=center;fontSize=14;" vertex="1" parent="1">
                    <mxGeometry x="1270" y="60" width="170" height="86" as="geometry"/>
                </mxCell>
                <mxCell id="3" value="&lt;u&gt;branch_id&amp;nbsp;&lt;/u&gt;" style="text;html=1;resizable=0;autosize=1;align=left;verticalAlign=middle;points=[];fillColor=none;strokeColor=none;rounded=0;" vertex="1" parent="2">
                    <mxGeometry y="26" width="170" height="20" as="geometry"/>
                </mxCell>
                <mxCell id="4" value="city&amp;nbsp;" style="text;html=1;resizable=0;autosize=1;align=left;verticalAlign=middle;points=[];fillColor=none;strokeColor=none;rounded=0;" vertex="1" parent="2">
                    <mxGeometry y="46" width="170" height="20" as="geometry"/>
                </mxCell>
                <mxCell id="5" value="manager_id&amp;nbsp;" style="text;html=1;resizable=0;autosize=1;align=left;verticalAlign=middle;points=[];fillColor=none;strokeColor=none;rounded=0;" vertex="1" parent="2">
                    <mxGeometry y="66" width="170" height="20" as="geometry"/>
                </mxCell>
                <mxCell id="6" value="Appointment" style="swimlane;fontStyle=0;childLayout=stackLayout;horizontal=1;startSize=26;horizontalStack=0;resizeParent=1;resizeParentMax=0;resizeLast=0;collapsible=1;marginBottom=0;align=center;fontSize=14;swimlaneFillColor=none;" vertex="1" parent="1">
                    <mxGeometry x="970" y="150" width="180" height="206" as="geometry"/>
                </mxCell>
                <mxCell id="7" value="&lt;u&gt;appointment_id&amp;nbsp;&lt;/u&gt;" style="text;html=1;resizable=0;autosize=1;align=left;verticalAlign=middle;points=[];fillColor=none;strokeColor=none;rounded=0;" vertex="1" parent="6">
                    <mxGeometry y="26" width="180" height="20" as="geometry"/>
                </mxCell>
                <mxCell id="8" value="patient_id&amp;nbsp;" style="text;html=1;resizable=0;autosize=1;align=left;verticalAlign=middle;points=[];fillColor=none;strokeColor=none;rounded=0;" vertex="1" parent="6">
                    <mxGeometry y="46" width="180" height="20" as="geometry"/>
                </mxCell>
                <mxCell id="9" value="dentist_id" style="text;html=1;resizable=0;autosize=1;align=left;verticalAlign=middle;points=[];fillColor=none;strokeColor=none;rounded=0;" vertex="1" parent="6">
                    <mxGeometry y="66" width="180" height="20" as="geometry"/>
                </mxCell>
                <mxCell id="10" value="date&amp;nbsp;" style="text;html=1;resizable=0;autosize=1;align=left;verticalAlign=middle;points=[];fillColor=none;strokeColor=none;rounded=0;" vertex="1" parent="6">
                    <mxGeometry y="86" width="180" height="20" as="geometry"/>
                </mxCell>
                <mxCell id="11" value="start_time&amp;nbsp;" style="text;html=1;resizable=0;autosize=1;align=left;verticalAlign=middle;points=[];fillColor=none;strokeColor=none;rounded=0;" vertex="1" parent="6">
                    <mxGeometry y="106" width="180" height="20" as="geometry"/>
                </mxCell>
                <mxCell id="12" value="end_time&amp;nbsp;" style="text;html=1;resizable=0;autosize=1;align=left;verticalAlign=middle;points=[];fillColor=none;strokeColor=none;rounded=0;" vertex="1" parent="6">
                    <mxGeometry y="126" width="180" height="20" as="geometry"/>
                </mxCell>
                <mxCell id="13" value="appointement_type&amp;nbsp;" style="text;html=1;resizable=0;autosize=1;align=left;verticalAlign=middle;points=[];fillColor=none;strokeColor=none;rounded=0;" vertex="1" parent="6">
                    <mxGeometry y="146" width="180" height="20" as="geometry"/>
                </mxCell>
                <mxCell id="14" value="status&amp;nbsp;" style="text;html=1;resizable=0;autosize=1;align=left;verticalAlign=middle;points=[];fillColor=none;strokeColor=none;rounded=0;" vertex="1" parent="6">
                    <mxGeometry y="166" width="180" height="20" as="geometry"/>
                </mxCell>
                <mxCell id="15" value="room_assigned&amp;nbsp;" style="text;html=1;resizable=0;autosize=1;align=left;verticalAlign=middle;points=[];fillColor=none;strokeColor=none;rounded=0;" vertex="1" parent="6">
                    <mxGeometry y="186" width="180" height="20" as="geometry"/>
                </mxCell>
                <mxCell id="16" value="Appointement_Procedure" style="swimlane;fontStyle=0;childLayout=stackLayout;horizontal=1;startSize=26;horizontalStack=0;resizeParent=1;resizeParentMax=0;resizeLast=0;collapsible=1;marginBottom=0;align=center;fontSize=14;" vertex="1" parent="1">
                    <mxGeometry x="840" y="440" width="200" height="276" as="geometry"/>
                </mxCell>
                <mxCell id="17" value="&lt;font face=&quot;helvetica&quot;&gt;&lt;span&gt;&lt;u&gt;appointment_proc_id&amp;nbsp;&lt;/u&gt;&lt;/span&gt;&lt;/font&gt;" style="text;whiteSpace=wrap;html=1;labelBackgroundColor=default;fontColor=#FFFFFF;" vertex="1" parent="16">
                    <mxGeometry y="26" width="200" height="30" as="geometry"/>
                </mxCell>
                <mxCell id="18" value="appointment_id&amp;nbsp;" style="text;html=1;resizable=0;autosize=1;align=left;verticalAlign=middle;points=[];fillColor=none;strokeColor=none;rounded=0;" vertex="1" parent="16">
                    <mxGeometry y="56" width="200" height="20" as="geometry"/>
                </mxCell>
                <mxCell id="19" value="procedure_code&amp;nbsp;&amp;nbsp;" style="text;html=1;resizable=0;autosize=1;align=left;verticalAlign=middle;points=[];fillColor=none;strokeColor=none;rounded=0;" vertex="1" parent="16">
                    <mxGeometry y="76" width="200" height="20" as="geometry"/>
                </mxCell>
                <mxCell id="20" value="procedure_type&amp;nbsp;" style="text;html=1;resizable=0;autosize=1;align=left;verticalAlign=middle;points=[];fillColor=none;strokeColor=none;rounded=0;" vertex="1" parent="16">
                    <mxGeometry y="96" width="200" height="20" as="geometry"/>
                </mxCell>
                <mxCell id="21" value="date&amp;nbsp;" style="text;html=1;resizable=0;autosize=1;align=left;verticalAlign=middle;points=[];fillColor=none;strokeColor=none;rounded=0;" vertex="1" parent="16">
                    <mxGeometry y="116" width="200" height="20" as="geometry"/>
                </mxCell>
                <mxCell id="22" value="invoice_id&amp;nbsp;" style="text;html=1;resizable=0;autosize=1;align=left;verticalAlign=middle;points=[];fillColor=none;strokeColor=none;rounded=0;" vertex="1" parent="16">
                    <mxGeometry y="136" width="200" height="20" as="geometry"/>
                </mxCell>
                <mxCell id="23" value="tooth_involved&amp;nbsp;" style="text;html=1;resizable=0;autosize=1;align=left;verticalAlign=middle;points=[];fillColor=none;strokeColor=none;rounded=0;" vertex="1" parent="16">
                    <mxGeometry y="156" width="200" height="20" as="geometry"/>
                </mxCell>
                <mxCell id="24" value="amount_of_procedure&amp;nbsp;" style="text;html=1;resizable=0;autosize=1;align=left;verticalAlign=middle;points=[];fillColor=none;strokeColor=none;rounded=0;" vertex="1" parent="16">
                    <mxGeometry y="176" width="200" height="20" as="geometry"/>
                </mxCell>
                <mxCell id="25" value="patient_charge&amp;nbsp;" style="text;html=1;resizable=0;autosize=1;align=left;verticalAlign=middle;points=[];fillColor=none;strokeColor=none;rounded=0;" vertex="1" parent="16">
                    <mxGeometry y="196" width="200" height="20" as="geometry"/>
                </mxCell>
                <mxCell id="26" value="insurance_charge&amp;nbsp;" style="text;html=1;resizable=0;autosize=1;align=left;verticalAlign=middle;points=[];fillColor=none;strokeColor=none;rounded=0;" vertex="1" parent="16">
                    <mxGeometry y="216" width="200" height="20" as="geometry"/>
                </mxCell>
                <mxCell id="27" value="total_charge&amp;nbsp;" style="text;html=1;resizable=0;autosize=1;align=left;verticalAlign=middle;points=[];fillColor=none;strokeColor=none;rounded=0;" vertex="1" parent="16">
                    <mxGeometry y="236" width="200" height="20" as="geometry"/>
                </mxCell>
                <mxCell id="28" value="insurance_claim_id&amp;nbsp;" style="text;html=1;resizable=0;autosize=1;align=left;verticalAlign=middle;points=[];fillColor=none;strokeColor=none;rounded=0;" vertex="1" parent="16">
                    <mxGeometry y="256" width="200" height="20" as="geometry"/>
                </mxCell>
                <mxCell id="29" value="Treatment" style="swimlane;fontStyle=0;childLayout=stackLayout;horizontal=1;startSize=26;horizontalStack=0;resizeParent=1;resizeParentMax=0;resizeLast=0;collapsible=1;marginBottom=0;align=center;fontSize=14;" vertex="1" parent="1">
                    <mxGeometry x="479.99999999999994" y="420" width="200" height="146" as="geometry"/>
                </mxCell>
                <mxCell id="30" value="&lt;u&gt;treatment_id&lt;/u&gt;" style="text;html=1;resizable=0;autosize=1;align=left;verticalAlign=middle;points=[];fillColor=none;strokeColor=none;rounded=0;" vertex="1" parent="29">
                    <mxGeometry y="26" width="200" height="20" as="geometry"/>
                </mxCell>
                <mxCell id="31" value="&lt;span&gt;patient_id&lt;/span&gt;" style="text;html=1;resizable=0;autosize=1;align=left;verticalAlign=middle;points=[];fillColor=none;strokeColor=none;rounded=0;fontStyle=0" vertex="1" parent="29">
                    <mxGeometry y="46" width="200" height="20" as="geometry"/>
                </mxCell>
                <mxCell id="32" value="treatment_type" style="text;html=1;resizable=0;autosize=1;align=left;verticalAlign=middle;points=[];fillColor=none;strokeColor=none;rounded=0;" vertex="1" parent="29">
                    <mxGeometry y="66" width="200" height="20" as="geometry"/>
                </mxCell>
                <mxCell id="33" value="appointment_id&amp;nbsp;" style="text;html=1;resizable=0;autosize=1;align=left;verticalAlign=middle;points=[];fillColor=none;strokeColor=none;rounded=0;" vertex="1" parent="29">
                    <mxGeometry y="86" width="200" height="20" as="geometry"/>
                </mxCell>
                <mxCell id="34" value="treatment_details&amp;nbsp;" style="text;html=1;resizable=0;autosize=1;align=left;verticalAlign=middle;points=[];fillColor=none;strokeColor=none;rounded=0;" vertex="1" parent="29">
                    <mxGeometry y="106" width="200" height="20" as="geometry"/>
                </mxCell>
                <mxCell id="35" value="&lt;span&gt;patient_record&amp;nbsp;&lt;/span&gt;" style="text;html=1;resizable=0;autosize=1;align=left;verticalAlign=middle;points=[];fillColor=none;strokeColor=none;rounded=0;fontStyle=0" vertex="1" parent="29">
                    <mxGeometry y="126" width="200" height="20" as="geometry"/>
                </mxCell>
                <mxCell id="36" value="Fee_Charge" style="swimlane;fontStyle=0;childLayout=stackLayout;horizontal=1;startSize=26;horizontalStack=0;resizeParent=1;resizeParentMax=0;resizeLast=0;collapsible=1;marginBottom=0;align=center;fontSize=14;" vertex="1" parent="1">
                    <mxGeometry x="520" y="610" width="170" height="106" as="geometry"/>
                </mxCell>
                <mxCell id="37" value="&lt;u&gt;fee_id&amp;nbsp;&lt;/u&gt;" style="text;html=1;resizable=0;autosize=1;align=left;verticalAlign=middle;points=[];fillColor=none;strokeColor=none;rounded=0;" vertex="1" parent="36">
                    <mxGeometry y="26" width="170" height="20" as="geometry"/>
                </mxCell>
                <mxCell id="38" value="invoice_id" style="text;html=1;resizable=0;autosize=1;align=left;verticalAlign=middle;points=[];fillColor=none;strokeColor=none;rounded=0;" vertex="1" parent="36">
                    <mxGeometry y="46" width="170" height="20" as="geometry"/>
                </mxCell>
                <mxCell id="39" value="fee_code&amp;nbsp;" style="text;html=1;resizable=0;autosize=1;align=left;verticalAlign=middle;points=[];fillColor=none;strokeColor=none;rounded=0;" vertex="1" parent="36">
                    <mxGeometry y="66" width="170" height="20" as="geometry"/>
                </mxCell>
                <mxCell id="40" value="charge INT" style="text;html=1;resizable=0;autosize=1;align=left;verticalAlign=middle;points=[];fillColor=none;strokeColor=none;rounded=0;" vertex="1" parent="36">
                    <mxGeometry y="86" width="170" height="20" as="geometry"/>
                </mxCell>
                <mxCell id="41" value="Employee" style="swimlane;fontStyle=0;childLayout=stackLayout;horizontal=1;startSize=26;horizontalStack=0;resizeParent=1;resizeParentMax=0;resizeLast=0;collapsible=1;marginBottom=0;align=center;fontSize=14;" vertex="1" parent="1">
                    <mxGeometry x="1500" y="475" width="160" height="106" as="geometry"/>
                </mxCell>
                <mxCell id="42" value="&lt;u&gt;employee_id&amp;nbsp;&lt;/u&gt;" style="text;html=1;resizable=0;autosize=1;align=left;verticalAlign=middle;points=[];fillColor=none;strokeColor=none;rounded=0;" vertex="1" parent="41">
                    <mxGeometry y="26" width="160" height="20" as="geometry"/>
                </mxCell>
                <mxCell id="43" value="&lt;div style=&quot;text-align: center&quot;&gt;&lt;span&gt;&lt;font face=&quot;helvetica&quot;&gt;person_id&amp;nbsp;&lt;/font&gt;&lt;/span&gt;&lt;/div&gt;" style="text;whiteSpace=wrap;html=1;labelBackgroundColor=none;fontColor=#FFFFFF;" vertex="1" parent="41">
                    <mxGeometry y="46" width="160" height="30" as="geometry"/>
                </mxCell>
                <mxCell id="44" value="&lt;span style=&quot;font-family: &amp;#34;helvetica&amp;#34; ; font-size: 12px ; font-style: normal ; font-weight: 400 ; letter-spacing: normal ; text-align: center ; text-indent: 0px ; text-transform: none ; word-spacing: 0px ; display: inline ; float: none&quot;&gt;salary&amp;nbsp;&lt;/span&gt;" style="text;whiteSpace=wrap;html=1;labelBackgroundColor=none;fontColor=#FFFFFF;" vertex="1" parent="41">
                    <mxGeometry y="76" width="160" height="30" as="geometry"/>
                </mxCell>
                <mxCell id="45" value="Patient" style="swimlane;fontStyle=0;childLayout=stackLayout;horizontal=1;startSize=26;horizontalStack=0;resizeParent=1;resizeParentMax=0;resizeLast=0;collapsible=1;marginBottom=0;align=center;fontSize=14;" vertex="1" parent="1">
                    <mxGeometry y="310" width="160" height="96" as="geometry"/>
                </mxCell>
                <mxCell id="46" value="&lt;u&gt;patient_id&amp;nbsp;&lt;/u&gt;" style="text;html=1;resizable=0;autosize=1;align=left;verticalAlign=middle;points=[];fillColor=none;strokeColor=none;rounded=0;" vertex="1" parent="45">
                    <mxGeometry y="26" width="160" height="20" as="geometry"/>
                </mxCell>
                <mxCell id="47" value="person_id&amp;nbsp;" style="text;html=1;resizable=0;autosize=1;align=left;verticalAlign=middle;points=[];fillColor=none;strokeColor=none;rounded=0;" vertex="1" parent="45">
                    <mxGeometry y="46" width="160" height="20" as="geometry"/>
                </mxCell>
                <mxCell id="48" value="&lt;span style=&quot;font-family: &amp;#34;helvetica&amp;#34; ; font-size: 12px ; font-style: normal ; font-weight: 400 ; letter-spacing: normal ; text-align: center ; text-indent: 0px ; text-transform: none ; word-spacing: 0px ; display: inline ; float: none&quot;&gt;&lt;font color=&quot;#ffffff&quot;&gt;insurance&amp;nbsp;&amp;nbsp;&lt;/font&gt;&lt;/span&gt;" style="text;whiteSpace=wrap;html=1;labelBackgroundColor=default;" vertex="1" parent="45">
                    <mxGeometry y="66" width="160" height="30" as="geometry"/>
                </mxCell>
                <mxCell id="49" value="Insurance_Claim" style="swimlane;fontStyle=0;childLayout=stackLayout;horizontal=1;startSize=26;horizontalStack=0;resizeParent=1;resizeParentMax=0;resizeLast=0;collapsible=1;marginBottom=0;align=center;fontSize=14;" vertex="1" parent="1">
                    <mxGeometry x="1230" y="600" width="230" height="66" as="geometry"/>
                </mxCell>
                <mxCell id="50" value="&lt;u&gt;appointment_proc&amp;nbsp;&lt;/u&gt;" style="text;html=1;resizable=0;autosize=1;align=left;verticalAlign=middle;points=[];fillColor=none;strokeColor=none;rounded=0;" vertex="1" parent="49">
                    <mxGeometry y="26" width="230" height="20" as="geometry"/>
                </mxCell>
                <mxCell id="51" value="payment_id" style="text;html=1;resizable=0;autosize=1;align=left;verticalAlign=middle;points=[];fillColor=none;strokeColor=none;rounded=0;" vertex="1" parent="49">
                    <mxGeometry y="46" width="230" height="20" as="geometry"/>
                </mxCell>
                <mxCell id="52" value="Review" style="swimlane;fontStyle=0;childLayout=stackLayout;horizontal=1;startSize=26;horizontalStack=0;resizeParent=1;resizeParentMax=0;resizeLast=0;collapsible=1;marginBottom=0;align=center;fontSize=14;" vertex="1" parent="1">
                    <mxGeometry x="640" y="-166" width="320" height="166" as="geometry"/>
                </mxCell>
                <mxCell id="53" value="&lt;u&gt;review_id&amp;nbsp;&lt;/u&gt;" style="text;html=1;resizable=0;autosize=1;align=left;verticalAlign=middle;points=[];fillColor=none;strokeColor=none;rounded=0;" vertex="1" parent="52">
                    <mxGeometry y="26" width="320" height="20" as="geometry"/>
                </mxCell>
                <mxCell id="54" value="professionalism&amp;nbsp;" style="text;html=1;resizable=0;autosize=1;align=left;verticalAlign=middle;points=[];fillColor=none;strokeColor=none;rounded=0;" vertex="1" parent="52">
                    <mxGeometry y="46" width="320" height="20" as="geometry"/>
                </mxCell>
                <mxCell id="55" value="communication&amp;nbsp;" style="text;html=1;resizable=0;autosize=1;align=left;verticalAlign=middle;points=[];fillColor=none;strokeColor=none;rounded=0;" vertex="1" parent="52">
                    <mxGeometry y="66" width="320" height="20" as="geometry"/>
                </mxCell>
                <mxCell id="56" value="cleanliness&amp;nbsp;" style="text;html=1;resizable=0;autosize=1;align=left;verticalAlign=middle;points=[];fillColor=none;strokeColor=none;rounded=0;" vertex="1" parent="52">
                    <mxGeometry y="86" width="320" height="20" as="geometry"/>
                </mxCell>
                <mxCell id="57" value="value" style="text;html=1;resizable=0;autosize=1;align=left;verticalAlign=middle;points=[];fillColor=none;strokeColor=none;rounded=0;" vertex="1" parent="52">
                    <mxGeometry y="106" width="320" height="20" as="geometry"/>
                </mxCell>
                <mxCell id="58" value="patient_id" style="text;html=1;resizable=0;autosize=1;align=left;verticalAlign=middle;points=[];fillColor=none;strokeColor=none;rounded=0;" vertex="1" parent="52">
                    <mxGeometry y="126" width="320" height="20" as="geometry"/>
                </mxCell>
                <mxCell id="59" value="branch_id" style="text;html=1;resizable=0;autosize=1;align=left;verticalAlign=middle;points=[];fillColor=none;strokeColor=none;rounded=0;" vertex="1" parent="52">
                    <mxGeometry y="146" width="320" height="20" as="geometry"/>
                </mxCell>
                <mxCell id="60" value="Payment" style="swimlane;fontStyle=0;childLayout=stackLayout;horizontal=1;startSize=26;horizontalStack=0;resizeParent=1;resizeParentMax=0;resizeLast=0;collapsible=1;marginBottom=0;align=center;fontSize=14;" vertex="1" parent="1">
                    <mxGeometry x="920" y="820" width="170" height="146" as="geometry"/>
                </mxCell>
                <mxCell id="61" value="&lt;u&gt;payment_id&lt;/u&gt;" style="text;html=1;resizable=0;autosize=1;align=left;verticalAlign=middle;points=[];fillColor=none;strokeColor=none;rounded=0;" vertex="1" parent="60">
                    <mxGeometry y="26" width="170" height="20" as="geometry"/>
                </mxCell>
                <mxCell id="62" value="invoice_id" style="text;html=1;resizable=0;autosize=1;align=left;verticalAlign=middle;points=[];fillColor=none;strokeColor=none;rounded=0;" vertex="1" parent="60">
                    <mxGeometry y="46" width="170" height="20" as="geometry"/>
                </mxCell>
                <mxCell id="63" value="patient_charge&amp;nbsp;" style="text;html=1;resizable=0;autosize=1;align=left;verticalAlign=middle;points=[];fillColor=none;strokeColor=none;rounded=0;" vertex="1" parent="60">
                    <mxGeometry y="66" width="170" height="20" as="geometry"/>
                </mxCell>
                <mxCell id="64" value="insurance_charge&amp;nbsp;" style="text;html=1;resizable=0;autosize=1;align=left;verticalAlign=middle;points=[];fillColor=none;strokeColor=none;rounded=0;" vertex="1" parent="60">
                    <mxGeometry y="86" width="170" height="20" as="geometry"/>
                </mxCell>
                <mxCell id="65" value="total_charge&amp;nbsp;" style="text;html=1;resizable=0;autosize=1;align=left;verticalAlign=middle;points=[];fillColor=none;strokeColor=none;rounded=0;" vertex="1" parent="60">
                    <mxGeometry y="106" width="170" height="20" as="geometry"/>
                </mxCell>
                <mxCell id="66" value="payment_type" style="text;html=1;resizable=0;autosize=1;align=left;verticalAlign=middle;points=[];fillColor=none;strokeColor=none;rounded=0;" vertex="1" parent="60">
                    <mxGeometry y="126" width="170" height="20" as="geometry"/>
                </mxCell>
                <mxCell id="67" value="Invoice" style="swimlane;fontStyle=0;childLayout=stackLayout;horizontal=1;startSize=26;horizontalStack=0;resizeParent=1;resizeParentMax=0;resizeLast=0;collapsible=1;marginBottom=0;align=center;fontSize=14;" vertex="1" parent="1">
                    <mxGeometry x="570" y="800" width="180" height="86" as="geometry"/>
                </mxCell>
                <mxCell id="68" value="&lt;u&gt;invoice_id&amp;nbsp;&lt;/u&gt;" style="text;html=1;resizable=0;autosize=1;align=left;verticalAlign=middle;points=[];fillColor=none;strokeColor=none;rounded=0;" vertex="1" parent="67">
                    <mxGeometry y="26" width="180" height="20" as="geometry"/>
                </mxCell>
                <mxCell id="69" value="patient_id&amp;nbsp;" style="text;html=1;resizable=0;autosize=1;align=left;verticalAlign=middle;points=[];fillColor=none;strokeColor=none;rounded=0;" vertex="1" parent="67">
                    <mxGeometry y="46" width="180" height="20" as="geometry"/>
                </mxCell>
                <mxCell id="70" value="date_of_issue&amp;nbsp;" style="text;html=1;resizable=0;autosize=1;align=left;verticalAlign=middle;points=[];fillColor=none;strokeColor=none;rounded=0;" vertex="1" parent="67">
                    <mxGeometry y="66" width="180" height="20" as="geometry"/>
                </mxCell>
                <mxCell id="71" value="" style="edgeStyle=orthogonalEdgeStyle;fontSize=12;html=1;endArrow=ERzeroToMany;startArrow=ERmandOne;rounded=0;exitX=1;exitY=0.75;exitDx=0;exitDy=0;entryX=0.519;entryY=1.022;entryDx=0;entryDy=0;entryPerimeter=0;" edge="1" parent="1" source="48" target="70">
                    <mxGeometry width="100" height="100" relative="1" as="geometry">
                        <mxPoint x="590" y="590" as="sourcePoint"/>
                        <mxPoint x="645" y="890" as="targetPoint"/>
                        <Array as="points">
                            <mxPoint x="180" y="399"/>
                            <mxPoint x="210" y="400"/>
                            <mxPoint x="210" y="951"/>
                            <mxPoint x="653" y="951"/>
                        </Array>
                    </mxGeometry>
                </mxCell>
                <mxCell id="72" value="has" style="edgeLabel;html=1;align=center;verticalAlign=middle;resizable=0;points=[];" vertex="1" connectable="0" parent="71">
                    <mxGeometry x="0.2123" y="-6" relative="1" as="geometry">
                        <mxPoint as="offset"/>
                    </mxGeometry>
                </mxCell>
                <mxCell id="73" value="" style="edgeStyle=orthogonalEdgeStyle;fontSize=12;html=1;endArrow=ERzeroToMany;startArrow=ERmandOne;rounded=0;exitX=1.002;exitY=0.017;exitDx=0;exitDy=0;exitPerimeter=0;fontStyle=1;entryX=-0.011;entryY=0.695;entryDx=0;entryDy=0;entryPerimeter=0;" edge="1" parent="1" source="46" target="8">
                    <mxGeometry width="100" height="100" relative="1" as="geometry">
                        <mxPoint x="160.95999999999992" y="380" as="sourcePoint"/>
                        <mxPoint x="480" y="438" as="targetPoint"/>
                        <Array as="points">
                            <mxPoint x="300" y="336"/>
                            <mxPoint x="300" y="280"/>
                            <mxPoint x="910" y="280"/>
                            <mxPoint x="910" y="210"/>
                        </Array>
                    </mxGeometry>
                </mxCell>
                <mxCell id="74" value="has" style="edgeLabel;html=1;align=center;verticalAlign=middle;resizable=0;points=[];" vertex="1" connectable="0" parent="73">
                    <mxGeometry x="-0.0282" y="1" relative="1" as="geometry">
                        <mxPoint as="offset"/>
                    </mxGeometry>
                </mxCell>
                <mxCell id="75" value="" style="fontSize=12;html=1;endArrow=ERoneToMany;startArrow=ERmandOne;rounded=0;exitX=1.004;exitY=0.024;exitDx=0;exitDy=0;exitPerimeter=0;edgeStyle=orthogonalEdgeStyle;endFill=0;entryX=1.01;entryY=0.488;entryDx=0;entryDy=0;entryPerimeter=0;" edge="1" parent="1" source="15" target="18">
                    <mxGeometry width="100" height="100" relative="1" as="geometry">
                        <mxPoint x="590" y="700" as="sourcePoint"/>
                        <mxPoint x="690" y="600" as="targetPoint"/>
                        <Array as="points">
                            <mxPoint x="1190" y="337"/>
                            <mxPoint x="1190" y="454"/>
                            <mxPoint x="1100" y="454"/>
                            <mxPoint x="1100" y="506"/>
                        </Array>
                    </mxGeometry>
                </mxCell>
                <mxCell id="76" value="follows" style="edgeLabel;html=1;align=center;verticalAlign=middle;resizable=0;points=[];" vertex="1" connectable="0" parent="75">
                    <mxGeometry x="-0.0078" y="-2" relative="1" as="geometry">
                        <mxPoint as="offset"/>
                    </mxGeometry>
                </mxCell>
                <mxCell id="77" value="" style="edgeStyle=entityRelationEdgeStyle;fontSize=12;html=1;endArrow=ERzeroToMany;startArrow=ERmandOne;rounded=0;exitX=0.994;exitY=0.2;exitDx=0;exitDy=0;exitPerimeter=0;entryX=-0.007;entryY=0.433;entryDx=0;entryDy=0;entryPerimeter=0;" edge="1" parent="1" source="70" target="62">
                    <mxGeometry width="100" height="100" relative="1" as="geometry">
                        <mxPoint x="729.04" y="893" as="sourcePoint"/>
                        <mxPoint x="920" y="866" as="targetPoint"/>
                    </mxGeometry>
                </mxCell>
                <mxCell id="78" value="paid by" style="edgeLabel;html=1;align=center;verticalAlign=middle;resizable=0;points=[];" vertex="1" connectable="0" parent="77">
                    <mxGeometry x="0.145" relative="1" as="geometry">
                        <mxPoint as="offset"/>
                    </mxGeometry>
                </mxCell>
                <mxCell id="79" value="" style="fontSize=12;html=1;endArrow=ERzeroToMany;startArrow=ERmandOne;rounded=0;exitX=0.5;exitY=0;exitDx=0;exitDy=0;startFill=0;endFill=0;edgeStyle=orthogonalEdgeStyle;" edge="1" parent="1" source="67" target="38">
                    <mxGeometry width="100" height="100" relative="1" as="geometry">
                        <mxPoint x="1242.04" y="570" as="sourcePoint"/>
                        <mxPoint x="822.04" y="490" as="targetPoint"/>
                        <Array as="points">
                            <mxPoint x="660" y="728"/>
                            <mxPoint x="740" y="728"/>
                            <mxPoint x="740" y="666"/>
                        </Array>
                    </mxGeometry>
                </mxCell>
                <mxCell id="80" value="contains" style="edgeLabel;html=1;align=center;verticalAlign=middle;resizable=0;points=[];" vertex="1" connectable="0" parent="79">
                    <mxGeometry x="-0.0306" relative="1" as="geometry">
                        <mxPoint as="offset"/>
                    </mxGeometry>
                </mxCell>
                <mxCell id="81" value="" style="endArrow=ERmandOne;html=1;rounded=0;exitX=1.01;exitY=0.35;exitDx=0;exitDy=0;startArrow=ERzeroToMany;startFill=0;endFill=0;edgeStyle=orthogonalEdgeStyle;exitPerimeter=0;" edge="1" parent="1" source="33" target="15">
                    <mxGeometry width="50" height="50" relative="1" as="geometry">
                        <mxPoint x="470" y="650" as="sourcePoint"/>
                        <mxPoint x="520" y="600" as="targetPoint"/>
                        <Array as="points">
                            <mxPoint x="720" y="513"/>
                            <mxPoint x="720" y="380"/>
                            <mxPoint x="1060" y="380"/>
                        </Array>
                    </mxGeometry>
                </mxCell>
                <mxCell id="82" value="Results in" style="edgeLabel;html=1;align=center;verticalAlign=middle;resizable=0;points=[];" vertex="1" connectable="0" parent="81">
                    <mxGeometry x="0.1954" relative="1" as="geometry">
                        <mxPoint as="offset"/>
                    </mxGeometry>
                </mxCell>
                <mxCell id="83" value="" style="edgeStyle=entityRelationEdgeStyle;fontSize=12;html=1;endArrow=ERzeroToMany;startArrow=ERzeroToOne;rounded=0;exitX=1;exitY=0.224;exitDx=0;exitDy=0;exitPerimeter=0;entryX=0.003;entryY=0.433;entryDx=0;entryDy=0;entryPerimeter=0;endFill=0;startFill=0;" edge="1" parent="1" source="69" target="22">
                    <mxGeometry width="100" height="100" relative="1" as="geometry">
                        <mxPoint x="712.0400000000002" y="710" as="sourcePoint"/>
                        <mxPoint x="849.6399999999999" y="707.04" as="targetPoint"/>
                    </mxGeometry>
                </mxCell>
                <mxCell id="84" value="Procedure-Invoice" style="edgeLabel;html=1;align=center;verticalAlign=middle;resizable=0;points=[];" vertex="1" connectable="0" parent="83">
                    <mxGeometry x="-0.0398" y="-2" relative="1" as="geometry">
                        <mxPoint as="offset"/>
                    </mxGeometry>
                </mxCell>
                <mxCell id="85" value="Patient_Records" style="swimlane;fontStyle=0;childLayout=stackLayout;horizontal=1;startSize=26;horizontalStack=0;resizeParent=1;resizeParentMax=0;resizeLast=0;collapsible=1;marginBottom=0;align=center;fontSize=14;" vertex="1" parent="1">
                    <mxGeometry x="240" y="1190" width="160" height="106" as="geometry"/>
                </mxCell>
                <mxCell id="86" value="&lt;u&gt;record_id&amp;nbsp;&lt;/u&gt;" style="text;html=1;resizable=0;autosize=1;align=left;verticalAlign=middle;points=[];fillColor=none;strokeColor=none;rounded=0;" vertex="1" parent="85">
                    <mxGeometry y="26" width="160" height="20" as="geometry"/>
                </mxCell>
                <mxCell id="87" value="patient_id&amp;nbsp;" style="text;html=1;resizable=0;autosize=1;align=left;verticalAlign=middle;points=[];fillColor=none;strokeColor=none;rounded=0;" vertex="1" parent="85">
                    <mxGeometry y="46" width="160" height="20" as="geometry"/>
                </mxCell>
                <mxCell id="88" value="employee_id&amp;nbsp;" style="text;html=1;resizable=0;autosize=1;align=left;verticalAlign=middle;points=[];fillColor=none;strokeColor=none;rounded=0;" vertex="1" parent="85">
                    <mxGeometry y="66" width="160" height="20" as="geometry"/>
                </mxCell>
                <mxCell id="89" value="employee_notes&amp;nbsp;" style="text;html=1;resizable=0;autosize=1;align=left;verticalAlign=middle;points=[];fillColor=none;strokeColor=none;rounded=0;" vertex="1" parent="85">
                    <mxGeometry y="86" width="160" height="20" as="geometry"/>
                </mxCell>
                <mxCell id="90" value="" style="edgeStyle=orthogonalEdgeStyle;fontSize=12;html=1;endArrow=ERzeroToMany;startArrow=ERmandOne;rounded=0;entryX=0;entryY=0.522;entryDx=0;entryDy=0;entryPerimeter=0;exitX=0.75;exitY=1;exitDx=0;exitDy=0;" edge="1" parent="1" source="48" target="87">
                    <mxGeometry width="100" height="100" relative="1" as="geometry">
                        <mxPoint x="160.0000000000001" y="718.5" as="sourcePoint"/>
                        <mxPoint x="120" y="830" as="targetPoint"/>
                    </mxGeometry>
                </mxCell>
                <mxCell id="91" value="assigned" style="edgeLabel;html=1;align=center;verticalAlign=middle;resizable=0;points=[];" vertex="1" connectable="0" parent="90">
                    <mxGeometry x="0.377" y="-3" relative="1" as="geometry">
                        <mxPoint y="1" as="offset"/>
                    </mxGeometry>
                </mxCell>
                <mxCell id="92" value="" style="edgeStyle=orthogonalEdgeStyle;fontSize=12;html=1;endArrow=ERzeroToMany;startArrow=ERmandOne;rounded=0;exitX=0.25;exitY=1;exitDx=0;exitDy=0;entryX=1;entryY=0.833;entryDx=0;entryDy=0;entryPerimeter=0;" edge="1" parent="1" source="44" target="88">
                    <mxGeometry width="100" height="100" relative="1" as="geometry">
                        <mxPoint x="1540" y="581" as="sourcePoint"/>
                        <mxPoint x="400" y="1246" as="targetPoint"/>
                        <Array as="points">
                            <mxPoint x="1540" y="1220"/>
                            <mxPoint x="440" y="1220"/>
                            <mxPoint x="440" y="1273"/>
                        </Array>
                    </mxGeometry>
                </mxCell>
                <mxCell id="93" value="Writes" style="edgeLabel;html=1;align=center;verticalAlign=middle;resizable=0;points=[];" vertex="1" connectable="0" parent="92">
                    <mxGeometry x="-0.0338" y="1" relative="1" as="geometry">
                        <mxPoint as="offset"/>
                    </mxGeometry>
                </mxCell>
                <mxCell id="94" value="" style="edgeStyle=entityRelationEdgeStyle;fontSize=12;html=1;endArrow=ERzeroToOne;startArrow=ERmandOne;rounded=0;exitX=0.998;exitY=0.558;exitDx=0;exitDy=0;exitPerimeter=0;fontStyle=1;entryX=-0.005;entryY=0.558;entryDx=0;entryDy=0;entryPerimeter=0;endFill=0;" edge="1" parent="1" source="28" target="50">
                    <mxGeometry width="100" height="100" relative="1" as="geometry">
                        <mxPoint x="880" y="494" as="sourcePoint"/>
                        <mxPoint x="1119.04" y="520.0000000000001" as="targetPoint"/>
                    </mxGeometry>
                </mxCell>
                <mxCell id="95" value="has" style="edgeLabel;html=1;align=center;verticalAlign=middle;resizable=0;points=[];" vertex="1" connectable="0" parent="94">
                    <mxGeometry x="-0.0282" y="1" relative="1" as="geometry">
                        <mxPoint as="offset"/>
                    </mxGeometry>
                </mxCell>
                <mxCell id="96" value="" style="edgeStyle=entityRelationEdgeStyle;fontSize=12;html=1;endArrow=ERzeroToMany;startArrow=ERmandOne;rounded=0;exitX=1;exitY=0.137;exitDx=0;exitDy=0;fontStyle=1;entryX=-0.011;entryY=0.54;entryDx=0;entryDy=0;entryPerimeter=0;endFill=0;exitPerimeter=0;" edge="1" parent="1" source="60" target="51">
                    <mxGeometry width="100" height="100" relative="1" as="geometry">
                        <mxPoint x="1080" y="881" as="sourcePoint"/>
                        <mxPoint x="967.54" y="953.3300000000002" as="targetPoint"/>
                    </mxGeometry>
                </mxCell>
                <mxCell id="97" value="has" style="edgeLabel;html=1;align=center;verticalAlign=middle;resizable=0;points=[];" vertex="1" connectable="0" parent="96">
                    <mxGeometry x="-0.0282" y="1" relative="1" as="geometry">
                        <mxPoint as="offset"/>
                    </mxGeometry>
                </mxCell>
                <mxCell id="98" value="" style="edgeStyle=orthogonalEdgeStyle;fontSize=12;html=1;endArrow=ERzeroToMany;startArrow=ERmandOne;rounded=0;exitX=1.013;exitY=0.036;exitDx=0;exitDy=0;exitPerimeter=0;entryX=-0.004;entryY=0.607;entryDx=0;entryDy=0;entryPerimeter=0;" edge="1" parent="1" source="45" target="58">
                    <mxGeometry width="100" height="100" relative="1" as="geometry">
                        <mxPoint x="270" y="40" as="sourcePoint"/>
                        <mxPoint x="510" y="282.5" as="targetPoint"/>
                        <Array as="points">
                            <mxPoint x="162" y="138"/>
                            <mxPoint x="580" y="138"/>
                            <mxPoint x="580" y="-28"/>
                        </Array>
                    </mxGeometry>
                </mxCell>
                <mxCell id="99" value="writes" style="edgeLabel;html=1;align=center;verticalAlign=middle;resizable=0;points=[];" vertex="1" connectable="0" parent="98">
                    <mxGeometry x="0.0799" y="4" relative="1" as="geometry">
                        <mxPoint y="-1" as="offset"/>
                    </mxGeometry>
                </mxCell>
                <mxCell id="100" value="" style="edgeStyle=orthogonalEdgeStyle;fontSize=12;html=1;endArrow=ERzeroToMany;startArrow=ERmandOne;rounded=0;exitX=0;exitY=0.25;exitDx=0;exitDy=0;entryX=1;entryY=0.479;entryDx=0;entryDy=0;entryPerimeter=0;" edge="1" parent="1" source="2" target="59">
                    <mxGeometry width="100" height="100" relative="1" as="geometry">
                        <mxPoint x="765.9200000000002" y="207.47600000000057" as="sourcePoint"/>
                        <mxPoint x="1240" y="-60" as="targetPoint"/>
                    </mxGeometry>
                </mxCell>
                <mxCell id="101" value="given_to" style="edgeLabel;html=1;align=center;verticalAlign=middle;resizable=0;points=[];" vertex="1" connectable="0" parent="100">
                    <mxGeometry x="0.004" y="2" relative="1" as="geometry">
                        <mxPoint x="-1" as="offset"/>
                    </mxGeometry>
                </mxCell>
                <mxCell id="102" value="" style="edgeStyle=orthogonalEdgeStyle;fontSize=12;html=1;endArrow=ERzeroToMany;startArrow=ERmandOne;rounded=0;exitX=1;exitY=0;exitDx=0;exitDy=0;fontStyle=1;entryX=0.003;entryY=0.342;entryDx=0;entryDy=0;entryPerimeter=0;" edge="1" parent="1" source="48" target="30">
                    <mxGeometry width="100" height="100" relative="1" as="geometry">
                        <mxPoint x="160.0000000000001" y="458.5" as="sourcePoint"/>
                        <mxPoint x="370" y="356" as="targetPoint"/>
                        <Array as="points">
                            <mxPoint x="320" y="376"/>
                            <mxPoint x="320" y="453"/>
                        </Array>
                    </mxGeometry>
                </mxCell>
                <mxCell id="103" value="is_given" style="edgeLabel;html=1;align=center;verticalAlign=middle;resizable=0;points=[];" vertex="1" connectable="0" parent="102">
                    <mxGeometry x="-0.0282" y="1" relative="1" as="geometry">
                        <mxPoint as="offset"/>
                    </mxGeometry>
                </mxCell>
                <mxCell id="104" value="" style="fontSize=12;html=1;endArrow=ERzeroToMany;startArrow=ERmandOne;rounded=0;exitX=0.5;exitY=0;exitDx=0;exitDy=0;edgeStyle=orthogonalEdgeStyle;entryX=0.998;entryY=0.593;entryDx=0;entryDy=0;entryPerimeter=0;" edge="1" parent="1" source="138" target="9">
                    <mxGeometry width="100" height="100" relative="1" as="geometry">
                        <mxPoint x="1260" y="361" as="sourcePoint"/>
                        <mxPoint x="1130" y="260" as="targetPoint"/>
                        <Array as="points">
                            <mxPoint x="1340" y="228"/>
                        </Array>
                    </mxGeometry>
                </mxCell>
                <mxCell id="105" value="assigned" style="edgeLabel;html=1;align=center;verticalAlign=middle;resizable=0;points=[];" vertex="1" connectable="0" parent="104">
                    <mxGeometry x="-0.1602" y="1" relative="1" as="geometry">
                        <mxPoint as="offset"/>
                    </mxGeometry>
                </mxCell>
                <mxCell id="106" value="" style="edgeStyle=entityRelationEdgeStyle;fontSize=12;html=1;endArrow=ERzeroToMany;startArrow=ERmandOne;rounded=0;fontStyle=1;exitX=0.996;exitY=0.135;exitDx=0;exitDy=0;exitPerimeter=0;entryX=-0.011;entryY=0.636;entryDx=0;entryDy=0;entryPerimeter=0;" edge="1" parent="1" source="85" target="35">
                    <mxGeometry width="100" height="100" relative="1" as="geometry">
                        <mxPoint x="460" y="1120" as="sourcePoint"/>
                        <mxPoint x="480" y="460" as="targetPoint"/>
                    </mxGeometry>
                </mxCell>
                <mxCell id="107" value="is_given" style="edgeLabel;html=1;align=center;verticalAlign=middle;resizable=0;points=[];" vertex="1" connectable="0" parent="106">
                    <mxGeometry x="-0.0282" y="1" relative="1" as="geometry">
                        <mxPoint x="-8" y="-193" as="offset"/>
                    </mxGeometry>
                </mxCell>
                <mxCell id="108" value="age()" style="text;html=1;resizable=0;autosize=1;align=left;verticalAlign=middle;points=[];fillColor=none;strokeColor=none;rounded=0;" vertex="1" parent="1">
                    <mxGeometry x="130" y="676" width="160" height="20" as="geometry"/>
                </mxCell>
                <mxCell id="109" style="edgeStyle=orthogonalEdgeStyle;rounded=0;orthogonalLoop=1;jettySize=auto;html=1;exitX=1.013;exitY=0.7;exitDx=0;exitDy=0;startArrow=ERone;startFill=0;endArrow=ERzeroToOne;endFill=0;exitPerimeter=0;" edge="1" parent="1" source="115" target="44">
                    <mxGeometry relative="1" as="geometry">
                        <Array as="points">
                            <mxPoint x="1620" y="1360"/>
                        </Array>
                        <mxPoint x="1620" y="581" as="targetPoint"/>
                    </mxGeometry>
                </mxCell>
                <mxCell id="110" value="works as" style="edgeLabel;html=1;align=center;verticalAlign=middle;resizable=0;points=[];" vertex="1" connectable="0" parent="109">
                    <mxGeometry x="-0.5816" y="3" relative="1" as="geometry">
                        <mxPoint as="offset"/>
                    </mxGeometry>
                </mxCell>
                <mxCell id="111" value="Person" style="swimlane;fontStyle=0;childLayout=stackLayout;horizontal=1;startSize=26;horizontalStack=0;resizeParent=1;resizeParentMax=0;resizeLast=0;collapsible=1;marginBottom=0;align=center;fontSize=14;" vertex="1" parent="1">
                    <mxGeometry x="850" y="1250" width="170" height="356" as="geometry"/>
                </mxCell>
                <mxCell id="112" value="person_id " style="text;strokeColor=none;fillColor=none;spacingLeft=4;spacingRight=4;overflow=hidden;rotatable=0;points=[[0,0.5],[1,0.5]];portConstraint=eastwest;fontSize=12;fontStyle=4" vertex="1" parent="111">
                    <mxGeometry y="26" width="170" height="30" as="geometry"/>
                </mxCell>
                <mxCell id="113" value="SSN&amp;nbsp;" style="text;html=1;resizable=0;autosize=1;align=left;verticalAlign=middle;points=[];fillColor=none;strokeColor=none;rounded=0;" vertex="1" parent="111">
                    <mxGeometry y="56" width="170" height="20" as="geometry"/>
                </mxCell>
                <mxCell id="114" value="b_date&amp;nbsp;" style="text;html=1;resizable=0;autosize=1;align=left;verticalAlign=middle;points=[];fillColor=none;strokeColor=none;rounded=0;" vertex="1" parent="111">
                    <mxGeometry y="76" width="170" height="20" as="geometry"/>
                </mxCell>
                <mxCell id="115" value="name" style="text;html=1;resizable=0;autosize=1;align=left;verticalAlign=middle;points=[];fillColor=none;strokeColor=none;rounded=0;" vertex="1" parent="111">
                    <mxGeometry y="96" width="170" height="20" as="geometry"/>
                </mxCell>
                <mxCell id="116" value="&lt;span style=&quot;white-space: pre&quot;&gt;&#9;&lt;/span&gt;f_name&amp;nbsp;" style="text;html=1;resizable=0;autosize=1;align=left;verticalAlign=middle;points=[];fillColor=none;strokeColor=none;rounded=0;" vertex="1" parent="111">
                    <mxGeometry y="116" width="170" height="20" as="geometry"/>
                </mxCell>
                <mxCell id="117" value="&lt;span style=&quot;white-space: pre&quot;&gt;&#9;&lt;/span&gt;l_name&amp;nbsp;" style="text;html=1;resizable=0;autosize=1;align=left;verticalAlign=middle;points=[];fillColor=none;strokeColor=none;rounded=0;" vertex="1" parent="111">
                    <mxGeometry y="136" width="170" height="20" as="geometry"/>
                </mxCell>
                <mxCell id="118" value="address" style="text;html=1;resizable=0;autosize=1;align=left;verticalAlign=middle;points=[];fillColor=none;strokeColor=none;rounded=0;" vertex="1" parent="111">
                    <mxGeometry y="156" width="170" height="20" as="geometry"/>
                </mxCell>
                <mxCell id="119" value="&lt;span style=&quot;white-space: pre&quot;&gt;&#9;&lt;/span&gt;city&amp;nbsp;" style="text;html=1;resizable=0;autosize=1;align=left;verticalAlign=middle;points=[];fillColor=none;strokeColor=none;rounded=0;" vertex="1" parent="111">
                    <mxGeometry y="176" width="170" height="20" as="geometry"/>
                </mxCell>
                <mxCell id="120" value="&lt;span style=&quot;white-space: pre&quot;&gt;&#9;&lt;/span&gt;house_number&amp;nbsp;" style="text;html=1;resizable=0;autosize=1;align=left;verticalAlign=middle;points=[];fillColor=none;strokeColor=none;rounded=0;" vertex="1" parent="111">
                    <mxGeometry y="196" width="170" height="20" as="geometry"/>
                </mxCell>
                <mxCell id="121" value="&lt;span style=&quot;white-space: pre&quot;&gt;&#9;&lt;/span&gt;street&amp;nbsp;" style="text;html=1;resizable=0;autosize=1;align=left;verticalAlign=middle;points=[];fillColor=none;strokeColor=none;rounded=0;" vertex="1" parent="111">
                    <mxGeometry y="216" width="170" height="20" as="geometry"/>
                </mxCell>
                <mxCell id="122" value="&lt;span style=&quot;white-space: pre&quot;&gt;&#9;&lt;/span&gt;postal_code&amp;nbsp;" style="text;html=1;resizable=0;autosize=1;align=left;verticalAlign=middle;points=[];fillColor=none;strokeColor=none;rounded=0;" vertex="1" parent="111">
                    <mxGeometry y="236" width="170" height="20" as="geometry"/>
                </mxCell>
                <mxCell id="123" value="&lt;span style=&quot;white-space: pre&quot;&gt;&#9;&lt;/span&gt;province&amp;nbsp;" style="text;html=1;resizable=0;autosize=1;align=left;verticalAlign=middle;points=[];fillColor=none;strokeColor=none;rounded=0;" vertex="1" parent="111">
                    <mxGeometry y="256" width="170" height="20" as="geometry"/>
                </mxCell>
                <mxCell id="124" value="email&amp;nbsp;" style="text;html=1;resizable=0;autosize=1;align=left;verticalAlign=middle;points=[];fillColor=none;strokeColor=none;rounded=0;" vertex="1" parent="111">
                    <mxGeometry y="276" width="170" height="20" as="geometry"/>
                </mxCell>
                <mxCell id="125" value="gender&amp;nbsp;" style="text;html=1;resizable=0;autosize=1;align=left;verticalAlign=middle;points=[];fillColor=none;strokeColor=none;rounded=0;" vertex="1" parent="111">
                    <mxGeometry y="296" width="170" height="20" as="geometry"/>
                </mxCell>
                <mxCell id="126" value="phone-number&amp;nbsp;" style="text;html=1;resizable=0;autosize=1;align=left;verticalAlign=middle;points=[];fillColor=none;strokeColor=none;rounded=0;" vertex="1" parent="111">
                    <mxGeometry y="316" width="170" height="20" as="geometry"/>
                </mxCell>
                <mxCell id="127" value="" style="edgeStyle=entityRelationEdgeStyle;fontSize=12;html=1;endArrow=ERzeroToMany;startArrow=ERzeroToOne;rounded=0;entryX=1.006;entryY=0.29;entryDx=0;entryDy=0;entryPerimeter=0;exitX=1.006;exitY=0.243;exitDx=0;exitDy=0;exitPerimeter=0;" edge="1" parent="111" source="124" target="129">
                    <mxGeometry width="100" height="100" relative="1" as="geometry">
                        <mxPoint x="230.00000000000009" y="313.29" as="sourcePoint"/>
                        <mxPoint x="233.7400000000001" y="338.7100000000001" as="targetPoint"/>
                    </mxGeometry>
                </mxCell>
                <mxCell id="128" value="Caregiver" style="edgeLabel;html=1;align=center;verticalAlign=middle;resizable=0;points=[];" vertex="1" connectable="0" parent="127">
                    <mxGeometry x="0.0282" relative="1" as="geometry">
                        <mxPoint as="offset"/>
                    </mxGeometry>
                </mxCell>
                <mxCell id="129" value="caregiver_id&amp;nbsp;" style="text;html=1;resizable=0;autosize=1;align=left;verticalAlign=middle;points=[];fillColor=none;strokeColor=none;rounded=0;" vertex="1" parent="111">
                    <mxGeometry y="336" width="170" height="20" as="geometry"/>
                </mxCell>
                <mxCell id="130" style="edgeStyle=orthogonalEdgeStyle;rounded=0;orthogonalLoop=1;jettySize=auto;html=1;exitX=0;exitY=0.5;exitDx=0;exitDy=0;entryX=0.25;entryY=1;entryDx=0;entryDy=0;startArrow=ERone;startFill=0;endArrow=ERzeroToOne;endFill=0;" edge="1" parent="1" source="112" target="48">
                    <mxGeometry relative="1" as="geometry">
                        <mxPoint x="40" y="726" as="targetPoint"/>
                        <Array as="points">
                            <mxPoint x="820" y="1291"/>
                            <mxPoint x="820" y="1310"/>
                            <mxPoint x="40" y="1310"/>
                        </Array>
                    </mxGeometry>
                </mxCell>
                <mxCell id="131" value="is a" style="edgeLabel;html=1;align=center;verticalAlign=middle;resizable=0;points=[];" vertex="1" connectable="0" parent="130">
                    <mxGeometry x="-0.2033" y="-1" relative="1" as="geometry">
                        <mxPoint as="offset"/>
                    </mxGeometry>
                </mxCell>
                <mxCell id="132" value="User" style="swimlane;fontStyle=0;childLayout=stackLayout;horizontal=1;startSize=26;horizontalStack=0;resizeParent=1;resizeParentMax=0;resizeLast=0;collapsible=1;marginBottom=0;align=center;fontSize=14;" vertex="1" parent="1">
                    <mxGeometry x="1270" y="1426" width="160" height="86" as="geometry"/>
                </mxCell>
                <mxCell id="133" value="Username " style="text;strokeColor=none;fillColor=none;spacingLeft=4;spacingRight=4;overflow=hidden;rotatable=0;points=[[0,0.5],[1,0.5]];portConstraint=eastwest;fontSize=12;" vertex="1" parent="132">
                    <mxGeometry y="26" width="160" height="30" as="geometry"/>
                </mxCell>
                <mxCell id="134" value="Password " style="text;strokeColor=none;fillColor=none;spacingLeft=4;spacingRight=4;overflow=hidden;rotatable=0;points=[[0,0.5],[1,0.5]];portConstraint=eastwest;fontSize=12;" vertex="1" parent="132">
                    <mxGeometry y="56" width="160" height="30" as="geometry"/>
                </mxCell>
                <mxCell id="135" style="edgeStyle=orthogonalEdgeStyle;rounded=0;orthogonalLoop=1;jettySize=auto;html=1;exitX=0;exitY=0.5;exitDx=0;exitDy=0;entryX=1;entryY=0.2;entryDx=0;entryDy=0;entryPerimeter=0;startArrow=ERone;startFill=0;endArrow=ERzeroToOne;endFill=0;" edge="1" parent="1" source="133" target="117">
                    <mxGeometry relative="1" as="geometry"/>
                </mxCell>
                <mxCell id="136" value="is a" style="edgeLabel;html=1;align=center;verticalAlign=middle;resizable=0;points=[];" vertex="1" connectable="0" parent="135">
                    <mxGeometry x="-0.0455" relative="1" as="geometry">
                        <mxPoint as="offset"/>
                    </mxGeometry>
                </mxCell>
                <mxCell id="137" style="edgeStyle=orthogonalEdgeStyle;rounded=0;orthogonalLoop=1;jettySize=auto;html=1;exitX=0.75;exitY=0;exitDx=0;exitDy=0;entryX=0.75;entryY=1;entryDx=0;entryDy=0;startArrow=ERmany;startFill=0;endArrow=ERone;endFill=0;" edge="1" parent="1" source="138" target="2">
                    <mxGeometry relative="1" as="geometry"/>
                </mxCell>
                <mxCell id="138" value="Dentist" style="swimlane;fontStyle=0;childLayout=stackLayout;horizontal=1;startSize=26;horizontalStack=0;resizeParent=1;resizeParentMax=0;resizeLast=0;collapsible=1;marginBottom=0;align=center;fontSize=14;" vertex="1" parent="1">
                    <mxGeometry x="1260" y="320" width="160" height="86" as="geometry"/>
                </mxCell>
                <mxCell id="139" value="employee_id " style="text;strokeColor=none;fillColor=none;spacingLeft=4;spacingRight=4;overflow=hidden;rotatable=0;points=[[0,0.5],[1,0.5]];portConstraint=eastwest;fontSize=12;fontStyle=4" vertex="1" parent="138">
                    <mxGeometry y="26" width="160" height="30" as="geometry"/>
                </mxCell>
                <mxCell id="140" value="branch_id " style="text;strokeColor=none;fillColor=none;spacingLeft=4;spacingRight=4;overflow=hidden;rotatable=0;points=[[0,0.5],[1,0.5]];portConstraint=eastwest;fontSize=12;fontStyle=0" vertex="1" parent="138">
                    <mxGeometry y="56" width="160" height="30" as="geometry"/>
                </mxCell>
                <mxCell id="141" style="edgeStyle=orthogonalEdgeStyle;rounded=0;orthogonalLoop=1;jettySize=auto;html=1;exitX=1;exitY=0.5;exitDx=0;exitDy=0;entryX=0;entryY=0.5;entryDx=0;entryDy=0;startArrow=ERzeroToOne;startFill=0;endArrow=ERmandOne;endFill=0;" edge="1" parent="1" target="44">
                    <mxGeometry relative="1" as="geometry">
                        <mxPoint x="1420" y="361" as="sourcePoint"/>
                    </mxGeometry>
                </mxCell>
                <mxCell id="142" value="Receptionist" style="swimlane;fontStyle=0;childLayout=stackLayout;horizontal=1;startSize=26;horizontalStack=0;resizeParent=1;resizeParentMax=0;resizeLast=0;collapsible=1;marginBottom=0;align=center;fontSize=14;" vertex="1" parent="1">
                    <mxGeometry x="1550" y="210" width="160" height="86" as="geometry"/>
                </mxCell>
                <mxCell id="143" value="employee_id " style="text;strokeColor=none;fillColor=none;spacingLeft=4;spacingRight=4;overflow=hidden;rotatable=0;points=[[0,0.5],[1,0.5]];portConstraint=eastwest;fontSize=12;fontStyle=4" vertex="1" parent="142">
                    <mxGeometry y="26" width="160" height="30" as="geometry"/>
                </mxCell>
                <mxCell id="144" value="branch_id " style="text;strokeColor=none;fillColor=none;spacingLeft=4;spacingRight=4;overflow=hidden;rotatable=0;points=[[0,0.5],[1,0.5]];portConstraint=eastwest;fontSize=12;fontStyle=0" vertex="1" parent="142">
                    <mxGeometry y="56" width="160" height="30" as="geometry"/>
                </mxCell>
                <mxCell id="145" style="edgeStyle=orthogonalEdgeStyle;rounded=0;orthogonalLoop=1;jettySize=auto;html=1;exitX=1;exitY=0.5;exitDx=0;exitDy=0;entryX=1;entryY=0.25;entryDx=0;entryDy=0;startArrow=ERzeroToOne;startFill=0;endArrow=ERmandOne;endFill=0;" edge="1" parent="1" source="143" target="41">
                    <mxGeometry relative="1" as="geometry">
                        <mxPoint x="1710" y="281" as="sourcePoint"/>
                    </mxGeometry>
                </mxCell>
                <mxCell id="146" value="" style="edgeStyle=orthogonalEdgeStyle;fontSize=12;html=1;endArrow=ERoneToMany;rounded=0;entryX=0.5;entryY=0;entryDx=0;entryDy=0;startArrow=ERmandOne;startFill=0;" edge="1" parent="1" target="142">
                    <mxGeometry width="100" height="100" relative="1" as="geometry">
                        <mxPoint x="1420" y="147" as="sourcePoint"/>
                        <mxPoint x="1650" y="-20" as="targetPoint"/>
                        <Array as="points">
                            <mxPoint x="1420" y="180"/>
                            <mxPoint x="1630" y="180"/>
                        </Array>
                    </mxGeometry>
                </mxCell>
                <mxCell id="147" value="works at" style="edgeLabel;html=1;align=center;verticalAlign=middle;resizable=0;points=[];" vertex="1" connectable="0" parent="146">
                    <mxGeometry x="0.5733" y="5" relative="1" as="geometry">
                        <mxPoint as="offset"/>
                    </mxGeometry>
                </mxCell>
                <mxCell id="148" value="1..2" style="text;html=1;align=center;verticalAlign=middle;resizable=0;points=[];autosize=1;strokeColor=none;fillColor=none;" vertex="1" parent="1">
                    <mxGeometry x="1630" y="190" width="40" height="20" as="geometry"/>
                </mxCell>
                <mxCell id="149" style="edgeStyle=orthogonalEdgeStyle;rounded=0;orthogonalLoop=1;jettySize=auto;html=1;exitX=0.5;exitY=0;exitDx=0;exitDy=0;entryX=1.006;entryY=0.2;entryDx=0;entryDy=0;entryPerimeter=0;startArrow=ERmandOne;startFill=0;endArrow=ERmandOne;endFill=0;" edge="1" parent="1" source="151" target="5">
                    <mxGeometry relative="1" as="geometry"/>
                </mxCell>
                <mxCell id="150" value="manages" style="edgeLabel;html=1;align=center;verticalAlign=middle;resizable=0;points=[];" vertex="1" connectable="0" parent="149">
                    <mxGeometry x="-0.3549" y="-2" relative="1" as="geometry">
                        <mxPoint as="offset"/>
                    </mxGeometry>
                </mxCell>
                <mxCell id="151" value="Manager" style="swimlane;fontStyle=0;childLayout=stackLayout;horizontal=1;startSize=26;horizontalStack=0;resizeParent=1;resizeParentMax=0;resizeLast=0;collapsible=1;marginBottom=0;align=center;fontSize=14;" vertex="1" parent="1">
                    <mxGeometry x="1770" y="200" width="160" height="56" as="geometry"/>
                </mxCell>
                <mxCell id="152" value="employee_id " style="text;strokeColor=none;fillColor=none;spacingLeft=4;spacingRight=4;overflow=hidden;rotatable=0;points=[[0,0.5],[1,0.5]];portConstraint=eastwest;fontSize=12;fontStyle=4" vertex="1" parent="151">
                    <mxGeometry y="26" width="160" height="30" as="geometry"/>
                </mxCell>
                <mxCell id="153" style="edgeStyle=orthogonalEdgeStyle;rounded=0;orthogonalLoop=1;jettySize=auto;html=1;exitX=1;exitY=0.5;exitDx=0;exitDy=0;entryX=1;entryY=0.75;entryDx=0;entryDy=0;startArrow=ERzeroToOne;startFill=0;endArrow=ERmandOne;endFill=0;" edge="1" parent="1" source="152" target="44">
                    <mxGeometry relative="1" as="geometry">
                        <mxPoint x="1930" y="271" as="sourcePoint"/>
                        <mxPoint x="1660" y="558.5" as="targetPoint"/>
                        <Array as="points">
                            <mxPoint x="1950" y="241"/>
                            <mxPoint x="1950" y="407"/>
                            <mxPoint x="1810" y="407"/>
                            <mxPoint x="1810" y="574"/>
                            <mxPoint x="1660" y="574"/>
                        </Array>
                    </mxGeometry>
                </mxCell>
                <mxCell id="154" style="edgeStyle=orthogonalEdgeStyle;rounded=0;orthogonalLoop=1;jettySize=auto;html=1;exitX=0.5;exitY=0;exitDx=0;exitDy=0;entryX=1;entryY=0.116;entryDx=0;entryDy=0;entryPerimeter=0;startArrow=ERzeroToMany;startFill=1;endArrow=ERmandOne;endFill=0;" edge="1" parent="1" source="155" target="2">
                    <mxGeometry relative="1" as="geometry"/>
                </mxCell>
                <mxCell id="155" value="Hygienist" style="swimlane;fontStyle=0;childLayout=stackLayout;horizontal=1;startSize=26;horizontalStack=0;resizeParent=1;resizeParentMax=0;resizeLast=0;collapsible=1;marginBottom=0;align=center;fontSize=14;" vertex="1" parent="1">
                    <mxGeometry x="2000" y="206" width="160" height="86" as="geometry"/>
                </mxCell>
                <mxCell id="156" value="employee_id " style="text;strokeColor=none;fillColor=none;spacingLeft=4;spacingRight=4;overflow=hidden;rotatable=0;points=[[0,0.5],[1,0.5]];portConstraint=eastwest;fontSize=12;fontStyle=4" vertex="1" parent="155">
                    <mxGeometry y="26" width="160" height="30" as="geometry"/>
                </mxCell>
                <mxCell id="157" value="branch_id " style="text;strokeColor=none;fillColor=none;spacingLeft=4;spacingRight=4;overflow=hidden;rotatable=0;points=[[0,0.5],[1,0.5]];portConstraint=eastwest;fontSize=12;fontStyle=0" vertex="1" parent="155">
                    <mxGeometry y="56" width="160" height="30" as="geometry"/>
                </mxCell>
                <mxCell id="158" style="edgeStyle=orthogonalEdgeStyle;rounded=0;orthogonalLoop=1;jettySize=auto;html=1;exitX=1;exitY=0.5;exitDx=0;exitDy=0;startArrow=ERzeroToOne;startFill=0;endArrow=ERmandOne;endFill=0;entryX=1.013;entryY=1.1;entryDx=0;entryDy=0;entryPerimeter=0;" edge="1" parent="1" source="156" target="42">
                    <mxGeometry relative="1" as="geometry">
                        <mxPoint x="1940" y="251" as="sourcePoint"/>
                        <mxPoint x="1690" y="510" as="targetPoint"/>
                        <Array as="points">
                            <mxPoint x="2180" y="247"/>
                            <mxPoint x="2180" y="381"/>
                            <mxPoint x="1770" y="381"/>
                            <mxPoint x="1770" y="523"/>
                        </Array>
                    </mxGeometry>
                </mxCell>
                <mxCell id="159" value="Insurance claim has no data?" style="text;html=1;align=center;verticalAlign=middle;resizable=0;points=[];autosize=1;strokeColor=none;fillColor=none;" vertex="1" parent="1">
                    <mxGeometry x="1205" y="680" width="170" height="20" as="geometry"/>
                </mxCell>
            </root>
        </mxGraphModel>
    </diagram>
</mxfile>